<?xml version="1.0" encoding="UTF-8"?>
<svg version="1.1" xmlns="http://www.w3.org/2000/svg" width="842" height="510">
<path d="M0 0 C1.03759944 -0.00085442 2.07519889 -0.00170885 3.14424074 -0.00258917 C6.5957207 -0.00422672 10.04715128 0.00124899 13.49862671 0.00672913 C15.98282876 0.0070114 18.4670309 0.00685248 20.95123291 0.00628662 C26.28657279 0.00605944 31.62189751 0.00888243 36.95723343 0.01452446 C44.67108479 0.02267639 52.38493025 0.02525846 60.09878545 0.02651245 C72.61618381 0.02869718 85.13357564 0.03534154 97.65097046 0.04481506 C109.805267 0.05400418 121.95956176 0.06107767 134.11386108 0.06532288 C135.23900456 0.06571696 135.23900456 0.06571696 136.38687821 0.06611901 C140.15015781 0.06742411 143.91343742 0.06868781 147.67671704 0.06993091 C178.86133622 0.08028549 210.04594726 0.09796273 241.2305603 0.12025452 C238.90768444 20.38366764 228.29886804 36.87879838 214.2305603 51.12025452 C213.66079468 51.76220764 213.09102905 52.40416077 212.5039978 53.06556702 C194.02695605 73.43768998 160.14702169 84.52758624 133.44456291 86.38337708 C129.62932917 86.46372315 125.82540748 86.45840509 122.00961304 86.41322327 C120.56676199 86.40744314 119.12390479 86.40306247 117.68104553 86.39994812 C114.60807618 86.39056974 111.53536362 86.37192579 108.46249199 86.3457489 C103.57799725 86.30458932 98.69358223 86.28737474 93.8089447 86.27333069 C82.55176557 86.23745171 71.29480386 86.17145092 60.03777313 86.10464478 C49.72480882 86.04370659 39.4119217 85.98957274 29.09881359 85.96000004 C25.0499843 85.9476638 21.00140316 85.92907517 16.95269585 85.89476013 C-36.02079999 85.45051597 -84.51639276 97.02344635 -124.43740845 133.78431702 C-128.58654998 137.94040854 -132.18427015 142.47726992 -135.7694397 147.12025452 C-136.49904907 148.03419983 -137.22865845 148.94814514 -137.9803772 149.88978577 C-163.17631557 182.20247164 -177.60343961 226.02222409 -186.4569397 265.62025452 C-186.74323242 266.90017273 -186.74323242 266.90017273 -187.03530884 268.20594788 C-187.66382014 271.16987195 -188.22806412 274.13910285 -188.7694397 277.12025452 C-188.88322968 277.74662811 -188.99701965 278.37300171 -189.11425781 279.01835632 C-192.46443871 297.98055487 -193.56595241 317.25052013 -195.06900024 336.42567444 C-196.5422241 355.15028299 -198.34394883 373.62894539 -201.7694397 392.12025452 C-201.9933287 393.36036789 -201.9933287 393.36036789 -202.22174072 394.62553406 C-203.19899689 400.00116182 -204.28275624 405.34678121 -205.4569397 410.68275452 C-205.63463898 411.49468262 -205.81233826 412.30661072 -205.99542236 413.1431427 C-212.17902368 440.86058181 -222.15766087 468.21812428 -233.7694397 494.12025452 C-238.62253458 493.40911299 -242.47471504 492.07274378 -246.7694397 489.74525452 C-247.42025513 489.39293762 -248.07107056 489.04062073 -248.74160767 488.67762756 C-278.89504978 471.78601478 -297.80240272 441.90086105 -313.15957642 411.98085022 C-316.60347664 405.28621196 -320.21283345 398.71369668 -323.9569397 392.18275452 C-329.26694644 382.90217304 -334.33617396 373.50968523 -339.3319397 364.05775452 C-339.69592865 363.36916351 -340.0599176 362.68057251 -340.43493652 361.97111511 C-340.79725372 361.28564606 -341.15957092 360.600177 -341.53286743 359.89393616 C-342.25359311 358.53054243 -342.97437694 357.16717944 -343.69522095 355.80384827 C-344.04634445 355.13972427 -344.39746796 354.47560028 -344.75923157 353.79135132 C-348.73096317 346.28872544 -352.80145546 338.84105577 -356.88272095 331.39759827 C-358.91565218 327.68925851 -360.93177792 323.97233702 -362.93740845 320.24916077 C-368.20050406 310.48115859 -373.51727444 300.75586599 -379.0194397 291.12025452 C-386.95575403 277.19751723 -394.39869348 263.01285932 -401.86581421 248.83503723 C-403.11387995 246.46662068 -404.36546938 244.10007206 -405.61709595 241.73353577 C-409.03603674 235.26006175 -412.43677186 228.77930918 -415.7694397 222.26087952 C-425.6040908 203.07620498 -436.24023487 184.42685467 -447.79747009 166.22583008 C-448.44822006 165.20099014 -449.09897003 164.17615021 -449.7694397 163.12025452 C-450.67634696 176.38291671 -450.88752301 189.56774709 -450.81948853 202.85804749 C-450.81263946 204.97600652 -450.80631232 207.0939673 -450.80046082 209.21192932 C-450.78723857 213.73623356 -450.77112702 218.26051467 -450.75290871 222.78480148 C-450.72480347 229.95797708 -450.7079817 237.13115272 -450.69343567 244.30436707 C-450.6882933 246.7720547 -450.68313667 249.23974231 -450.67796612 251.70742989 C-450.67538056 252.9422782 -450.672795 254.17712651 -450.67013109 255.44939446 C-450.63424116 272.11984486 -450.58871747 288.79022772 -450.52261353 305.46058655 C-450.47794779 316.74750577 -450.44780879 328.03436642 -450.43375605 339.32136643 C-450.42573298 345.27538624 -450.41043878 351.22918073 -450.37708473 357.18311691 C-450.34574439 362.7860952 -450.33357336 368.38880449 -450.33530235 373.99186707 C-450.33263544 376.03145081 -450.32323625 378.07104044 -450.30607605 380.11055374 C-450.02705843 414.81472356 -460.75394268 448.08924481 -485.0975647 473.40931702 C-485.97928345 474.30392639 -486.8610022 475.19853577 -487.7694397 476.12025452 C-488.84451782 477.21466858 -488.84451782 477.21466858 -489.9413147 478.33119202 C-504.11864392 491.81564425 -522.92249505 499.12552168 -541.7694397 503.12025452 C-542.68983032 503.31877014 -543.61022095 503.51728577 -544.5585022 503.72181702 C-549.25621039 504.30474431 -553.91627159 504.22439827 -558.6444397 504.18275452 C-559.61897095 504.1782428 -560.5935022 504.17373108 -561.5975647 504.16908264 C-563.98825403 504.15736358 -566.37881409 504.14095671 -568.7694397 504.12025452 C-568.03338501 503.38806702 -567.29733032 502.65587952 -566.53897095 501.90150452 C-532.12987214 467.34681009 -537.58157062 421.61649193 -537.64812994 376.43902493 C-537.6523196 373.3359544 -537.65472587 370.23288684 -537.65668106 367.12981415 C-537.6908368 318.20959756 -538.08218301 269.29253436 -538.54711938 220.37478876 C-538.63631483 210.91266638 -538.71578842 201.45047856 -538.79342353 191.98825526 C-538.87064234 182.62781418 -538.95445665 173.26744648 -539.0431968 163.90710759 C-539.09514452 158.4177629 -539.14479942 152.92842739 -539.18758774 147.43900299 C-539.34684298 127.32458807 -539.58793343 107.22815041 -540.62149048 87.13685608 C-540.67241431 86.05798795 -540.67241431 86.05798795 -540.7243669 84.9573245 C-541.8898498 61.01669093 -547.8078634 36.15027418 -565.7694397 19.12025452 C-575.708775 10.74771098 -587.22760629 6.85544159 -599.7694397 4.12025452 C-599.7694397 3.79025452 -599.7694397 3.46025452 -599.7694397 3.12025452 C-589.36267394 2.78566786 -578.95549313 2.47176839 -568.54736328 2.18251514 C-563.7116894 2.04751356 -558.87640635 1.90603832 -554.04141235 1.74842834 C-510.38281495 0.33534252 -468.42867773 2.59178573 -434.4569397 33.68275452 C-432.54706716 35.48121782 -430.65844215 37.29969418 -428.7694397 39.12025452 C-428.08623657 39.74029358 -427.40303345 40.36033264 -426.6991272 40.99916077 C-419.4052128 47.82003888 -413.68251241 56.11949801 -407.7694397 64.12025452 C-407.25832642 64.80265198 -406.74721313 65.48504944 -406.22061157 66.18812561 C-393.9853536 82.57491669 -384.64952024 100.61746161 -374.93301392 118.55921936 C-372.37172974 123.26637546 -369.74836078 127.89435347 -366.8944397 132.43275452 C-355.48787897 150.58917695 -345.68146347 169.77071074 -335.60440063 188.68421936 C-332.71817291 194.08879215 -329.80521057 199.4788739 -326.8944397 204.87025452 C-321.23230249 215.36614031 -315.63617572 225.89614425 -310.05102539 236.43309021 C-305.48543346 245.04355196 -300.88530043 253.63282931 -296.2069397 262.18275452 C-295.7215271 263.07140198 -295.2361145 263.96004944 -294.73599243 264.87562561 C-292.71500149 268.57322024 -290.68830228 272.26728733 -288.6444397 275.95228577 C-280.29365455 291.14268274 -273.3467553 307.09568292 -266.7694397 323.12025452 C-266.76533081 322.5159259 -266.76122192 321.91159729 -266.75698853 321.28895569 C-265.86070688 244.17288311 -248.53746036 142.50187483 -194.8710022 84.40931702 C-193.02422787 82.39777472 -191.26956537 80.34023254 -189.5194397 78.24525452 C-145.43984952 28.01267806 -65.50387683 -0.20055108 0 0 Z " fill="#E91E63" transform="translate(600.7694396972656,-0.1202545166015625)"/>
<path d="M0 0 C1.53840121 0.00056514 3.07680296 0.00024555 4.61520386 -0.00088501 C8.7632878 -0.00145551 12.91125453 0.01024937 17.05931139 0.02426291 C21.40479967 0.03682113 25.75029105 0.03794476 30.09579468 0.04031372 C38.31199179 0.04651359 46.52813526 0.06290408 54.74430883 0.0830127 C64.10348449 0.10541833 73.46266281 0.11637683 82.82185864 0.12640357 C102.0627473 0.14727172 121.30358612 0.18241848 140.54443359 0.22705078 C139.93866883 2.89491688 139.32714937 5.56125261 138.71240234 8.22705078 C138.5441394 8.97083984 138.37587646 9.71462891 138.20251465 10.48095703 C133.06226903 32.65692873 121.52480764 57.61848071 102.54443359 71.22705078 C91.06260072 78.35370567 82.0323516 80.53486098 68.70263672 80.45410156 C67.43350433 80.45439362 66.16437195 80.45468567 64.85678101 80.45498657 C61.39862972 80.45555732 57.9406189 80.44384842 54.48250008 80.42983866 C50.86037037 80.41728461 47.23823698 80.41615713 43.61608887 80.41378784 C36.76687637 80.40758675 29.91772817 80.39119461 23.06854391 80.37108886 C15.26682303 80.34868704 7.46509899 80.33772569 -0.33664608 80.32769799 C-16.37632375 80.30682708 -32.41593686 80.27167793 -48.45556641 80.22705078 C-48.44884792 81.03813451 -48.44212944 81.84921824 -48.43520737 82.68488026 C-48.4012399 89.88407523 -48.57381129 97.02100551 -49.03466797 104.2043457 C-49.09651779 105.21786606 -49.15836761 106.23138641 -49.22209167 107.27561951 C-49.42558899 110.58655303 -49.63534788 113.8970462 -49.84619141 117.20751953 C-49.99357336 119.54803832 -50.14093213 121.88855857 -50.28826904 124.2290802 C-50.59786597 129.12696719 -50.91120834 134.02459969 -51.2265625 138.92211914 C-51.62493288 145.12104495 -52.00877344 151.32077616 -52.38898087 157.52083874 C-52.68822522 162.35801203 -52.99816276 167.19446103 -53.31078339 172.03078651 C-53.4564984 174.31169885 -53.5984865 176.59285314 -53.73627472 178.87425804 C-56.49583429 224.31378977 -65.6693518 271.57603111 -94.45556641 308.22705078 C-94.86677734 308.75186035 -95.27798828 309.27666992 -95.70166016 309.81738281 C-101.90509097 317.65680743 -108.39972024 324.22372507 -116.45556641 330.22705078 C-117.56738281 331.11263672 -117.56738281 331.11263672 -118.70166016 332.01611328 C-129.79438188 340.43658489 -143.71568735 346.84108376 -157.45556641 349.22705078 C-156.17735022 346.58600922 -154.79557416 344.10205031 -153.20556641 341.63720703 C-122.22077973 292.84840934 -111.7616223 235.7573775 -108.20404053 178.94485474 C-104.84193619 125.29187072 -97.48411192 67.05439203 -60.45556641 25.22705078 C-59.42882812 24.05722656 -59.42882812 24.05722656 -58.38134766 22.86376953 C-42.56027208 5.93141692 -22.61608291 -0.11715854 0 0 Z " fill="#E91E63" transform="translate(527.45556640625,146.77294921875)"/>
</svg>
